<mxfile host="app.diagrams.net" modified="2024-05-10T20:52:38.629Z" agent="Mozilla/5.0 (Macintosh; Intel Mac OS X 10_15_7) AppleWebKit/537.36 (KHTML, like Gecko) Chrome/123.0.0.0 Safari/537.36 OPR/109.0.0.0" etag="194uGOy-FcAtpxeIrMMQ" version="24.3.1" type="device">
  <diagram name="PÃ¡gina-1" id="GKcQqyCfQ1V4mNrMHVXt">
    <mxGraphModel dx="1374" dy="795" grid="1" gridSize="10" guides="1" tooltips="1" connect="1" arrows="1" fold="1" page="1" pageScale="1" pageWidth="827" pageHeight="1169" math="0" shadow="0">
      <root>
        <mxCell id="0" />
        <mxCell id="1" parent="0" />
        <mxCell id="yq9nLCr21f6rnNmGo06T-1" value="clientes" style="shape=table;startSize=30;container=1;collapsible=0;childLayout=tableLayout;fixedRows=1;rowLines=0;fontStyle=1;strokeColor=default;fontSize=16;" parent="1" vertex="1">
          <mxGeometry x="400" y="200" width="200" height="242" as="geometry" />
        </mxCell>
        <mxCell id="QVtMbLoc-h5NBsnrJeJw-3" style="shape=tableRow;horizontal=0;startSize=0;swimlaneHead=0;swimlaneBody=0;top=0;left=0;bottom=0;right=0;collapsible=0;dropTarget=0;fillColor=none;points=[[0,0.5],[1,0.5]];portConstraint=eastwest;strokeColor=inherit;fontSize=16;" parent="yq9nLCr21f6rnNmGo06T-1" vertex="1">
          <mxGeometry y="30" width="200" height="30" as="geometry" />
        </mxCell>
        <mxCell id="QVtMbLoc-h5NBsnrJeJw-4" value="&lt;b&gt;PK&lt;/b&gt;" style="shape=partialRectangle;html=1;whiteSpace=wrap;connectable=0;fillColor=none;top=0;left=0;bottom=0;right=0;overflow=hidden;pointerEvents=1;strokeColor=inherit;fontSize=16;" parent="QVtMbLoc-h5NBsnrJeJw-3" vertex="1">
          <mxGeometry width="44" height="30" as="geometry">
            <mxRectangle width="44" height="30" as="alternateBounds" />
          </mxGeometry>
        </mxCell>
        <mxCell id="QVtMbLoc-h5NBsnrJeJw-5" value="id" style="shape=partialRectangle;html=1;whiteSpace=wrap;connectable=0;fillColor=none;top=0;left=0;bottom=0;right=0;align=left;spacingLeft=6;overflow=hidden;strokeColor=inherit;fontSize=16;" parent="QVtMbLoc-h5NBsnrJeJw-3" vertex="1">
          <mxGeometry x="44" width="156" height="30" as="geometry">
            <mxRectangle width="156" height="30" as="alternateBounds" />
          </mxGeometry>
        </mxCell>
        <mxCell id="yq9nLCr21f6rnNmGo06T-2" value="" style="shape=tableRow;horizontal=0;startSize=0;swimlaneHead=0;swimlaneBody=0;top=0;left=0;bottom=0;right=0;collapsible=0;dropTarget=0;fillColor=none;points=[[0,0.5],[1,0.5]];portConstraint=eastwest;strokeColor=inherit;fontSize=16;" parent="yq9nLCr21f6rnNmGo06T-1" vertex="1">
          <mxGeometry y="60" width="200" height="30" as="geometry" />
        </mxCell>
        <mxCell id="yq9nLCr21f6rnNmGo06T-3" value="&lt;b&gt;&lt;font style=&quot;font-size: 13px;&quot;&gt;UK&lt;/font&gt;&lt;/b&gt;" style="shape=partialRectangle;html=1;whiteSpace=wrap;connectable=0;fillColor=none;top=0;left=0;bottom=0;right=0;overflow=hidden;pointerEvents=1;strokeColor=inherit;fontSize=16;" parent="yq9nLCr21f6rnNmGo06T-2" vertex="1">
          <mxGeometry width="44" height="30" as="geometry">
            <mxRectangle width="44" height="30" as="alternateBounds" />
          </mxGeometry>
        </mxCell>
        <mxCell id="yq9nLCr21f6rnNmGo06T-4" value="dni" style="shape=partialRectangle;html=1;whiteSpace=wrap;connectable=0;fillColor=none;top=0;left=0;bottom=0;right=0;align=left;spacingLeft=6;overflow=hidden;strokeColor=inherit;fontSize=16;" parent="yq9nLCr21f6rnNmGo06T-2" vertex="1">
          <mxGeometry x="44" width="156" height="30" as="geometry">
            <mxRectangle width="156" height="30" as="alternateBounds" />
          </mxGeometry>
        </mxCell>
        <mxCell id="yq9nLCr21f6rnNmGo06T-5" value="" style="shape=tableRow;horizontal=0;startSize=0;swimlaneHead=0;swimlaneBody=0;top=0;left=0;bottom=0;right=0;collapsible=0;dropTarget=0;fillColor=none;points=[[0,0.5],[1,0.5]];portConstraint=eastwest;strokeColor=inherit;fontSize=16;" parent="yq9nLCr21f6rnNmGo06T-1" vertex="1">
          <mxGeometry y="90" width="200" height="36" as="geometry" />
        </mxCell>
        <mxCell id="yq9nLCr21f6rnNmGo06T-6" value="" style="shape=partialRectangle;html=1;whiteSpace=wrap;connectable=0;fillColor=none;top=0;left=0;bottom=0;right=0;overflow=hidden;strokeColor=inherit;fontSize=16;" parent="yq9nLCr21f6rnNmGo06T-5" vertex="1">
          <mxGeometry width="44" height="36" as="geometry">
            <mxRectangle width="44" height="36" as="alternateBounds" />
          </mxGeometry>
        </mxCell>
        <mxCell id="yq9nLCr21f6rnNmGo06T-7" value="nombre" style="shape=partialRectangle;html=1;whiteSpace=wrap;connectable=0;fillColor=none;top=0;left=0;bottom=0;right=0;align=left;spacingLeft=6;overflow=hidden;strokeColor=inherit;fontSize=16;" parent="yq9nLCr21f6rnNmGo06T-5" vertex="1">
          <mxGeometry x="44" width="156" height="36" as="geometry">
            <mxRectangle width="156" height="36" as="alternateBounds" />
          </mxGeometry>
        </mxCell>
        <mxCell id="yq9nLCr21f6rnNmGo06T-8" value="" style="shape=tableRow;horizontal=0;startSize=0;swimlaneHead=0;swimlaneBody=0;top=0;left=0;bottom=0;right=0;collapsible=0;dropTarget=0;fillColor=none;points=[[0,0.5],[1,0.5]];portConstraint=eastwest;strokeColor=inherit;fontSize=16;" parent="yq9nLCr21f6rnNmGo06T-1" vertex="1">
          <mxGeometry y="126" width="200" height="29" as="geometry" />
        </mxCell>
        <mxCell id="yq9nLCr21f6rnNmGo06T-9" value="" style="shape=partialRectangle;html=1;whiteSpace=wrap;connectable=0;fillColor=none;top=0;left=0;bottom=0;right=0;overflow=hidden;strokeColor=inherit;fontSize=16;" parent="yq9nLCr21f6rnNmGo06T-8" vertex="1">
          <mxGeometry width="44" height="29" as="geometry">
            <mxRectangle width="44" height="29" as="alternateBounds" />
          </mxGeometry>
        </mxCell>
        <mxCell id="yq9nLCr21f6rnNmGo06T-10" value="apellido" style="shape=partialRectangle;html=1;whiteSpace=wrap;connectable=0;fillColor=none;top=0;left=0;bottom=0;right=0;align=left;spacingLeft=6;overflow=hidden;strokeColor=inherit;fontSize=16;" parent="yq9nLCr21f6rnNmGo06T-8" vertex="1">
          <mxGeometry x="44" width="156" height="29" as="geometry">
            <mxRectangle width="156" height="29" as="alternateBounds" />
          </mxGeometry>
        </mxCell>
        <mxCell id="yq9nLCr21f6rnNmGo06T-11" style="shape=tableRow;horizontal=0;startSize=0;swimlaneHead=0;swimlaneBody=0;top=0;left=0;bottom=0;right=0;collapsible=0;dropTarget=0;fillColor=none;points=[[0,0.5],[1,0.5]];portConstraint=eastwest;strokeColor=inherit;fontSize=16;" parent="yq9nLCr21f6rnNmGo06T-1" vertex="1">
          <mxGeometry y="155" width="200" height="29" as="geometry" />
        </mxCell>
        <mxCell id="yq9nLCr21f6rnNmGo06T-12" value="" style="shape=partialRectangle;html=1;whiteSpace=wrap;connectable=0;fillColor=none;top=0;left=0;bottom=0;right=0;overflow=hidden;strokeColor=inherit;fontSize=16;" parent="yq9nLCr21f6rnNmGo06T-11" vertex="1">
          <mxGeometry width="44" height="29" as="geometry">
            <mxRectangle width="44" height="29" as="alternateBounds" />
          </mxGeometry>
        </mxCell>
        <mxCell id="yq9nLCr21f6rnNmGo06T-13" value="fecha_nacimiento" style="shape=partialRectangle;html=1;whiteSpace=wrap;connectable=0;fillColor=none;top=0;left=0;bottom=0;right=0;align=left;spacingLeft=6;overflow=hidden;strokeColor=inherit;fontSize=16;" parent="yq9nLCr21f6rnNmGo06T-11" vertex="1">
          <mxGeometry x="44" width="156" height="29" as="geometry">
            <mxRectangle width="156" height="29" as="alternateBounds" />
          </mxGeometry>
        </mxCell>
        <mxCell id="yq9nLCr21f6rnNmGo06T-14" style="shape=tableRow;horizontal=0;startSize=0;swimlaneHead=0;swimlaneBody=0;top=0;left=0;bottom=0;right=0;collapsible=0;dropTarget=0;fillColor=none;points=[[0,0.5],[1,0.5]];portConstraint=eastwest;strokeColor=inherit;fontSize=16;" parent="yq9nLCr21f6rnNmGo06T-1" vertex="1">
          <mxGeometry y="184" width="200" height="29" as="geometry" />
        </mxCell>
        <mxCell id="yq9nLCr21f6rnNmGo06T-15" value="" style="shape=partialRectangle;html=1;whiteSpace=wrap;connectable=0;fillColor=none;top=0;left=0;bottom=0;right=0;overflow=hidden;strokeColor=inherit;fontSize=16;" parent="yq9nLCr21f6rnNmGo06T-14" vertex="1">
          <mxGeometry width="44" height="29" as="geometry">
            <mxRectangle width="44" height="29" as="alternateBounds" />
          </mxGeometry>
        </mxCell>
        <mxCell id="yq9nLCr21f6rnNmGo06T-16" value="provincia" style="shape=partialRectangle;html=1;whiteSpace=wrap;connectable=0;fillColor=none;top=0;left=0;bottom=0;right=0;align=left;spacingLeft=6;overflow=hidden;strokeColor=inherit;fontSize=16;" parent="yq9nLCr21f6rnNmGo06T-14" vertex="1">
          <mxGeometry x="44" width="156" height="29" as="geometry">
            <mxRectangle width="156" height="29" as="alternateBounds" />
          </mxGeometry>
        </mxCell>
        <mxCell id="yq9nLCr21f6rnNmGo06T-17" style="shape=tableRow;horizontal=0;startSize=0;swimlaneHead=0;swimlaneBody=0;top=0;left=0;bottom=0;right=0;collapsible=0;dropTarget=0;fillColor=none;points=[[0,0.5],[1,0.5]];portConstraint=eastwest;strokeColor=inherit;fontSize=16;" parent="yq9nLCr21f6rnNmGo06T-1" vertex="1">
          <mxGeometry y="213" width="200" height="29" as="geometry" />
        </mxCell>
        <mxCell id="yq9nLCr21f6rnNmGo06T-18" style="shape=partialRectangle;html=1;whiteSpace=wrap;connectable=0;fillColor=none;top=0;left=0;bottom=0;right=0;overflow=hidden;strokeColor=inherit;fontSize=16;" parent="yq9nLCr21f6rnNmGo06T-17" vertex="1">
          <mxGeometry width="44" height="29" as="geometry">
            <mxRectangle width="44" height="29" as="alternateBounds" />
          </mxGeometry>
        </mxCell>
        <mxCell id="yq9nLCr21f6rnNmGo06T-19" value="ciudad" style="shape=partialRectangle;html=1;whiteSpace=wrap;connectable=0;fillColor=none;top=0;left=0;bottom=0;right=0;align=left;spacingLeft=6;overflow=hidden;strokeColor=inherit;fontSize=16;" parent="yq9nLCr21f6rnNmGo06T-17" vertex="1">
          <mxGeometry x="44" width="156" height="29" as="geometry">
            <mxRectangle width="156" height="29" as="alternateBounds" />
          </mxGeometry>
        </mxCell>
        <mxCell id="yq9nLCr21f6rnNmGo06T-80" value="planes" style="shape=table;startSize=30;container=1;collapsible=0;childLayout=tableLayout;fixedRows=1;rowLines=0;fontStyle=1;strokeColor=default;fontSize=16;" parent="1" vertex="1">
          <mxGeometry x="400" y="40" width="200" height="155" as="geometry" />
        </mxCell>
        <mxCell id="yq9nLCr21f6rnNmGo06T-81" value="" style="shape=tableRow;horizontal=0;startSize=0;swimlaneHead=0;swimlaneBody=0;top=0;left=0;bottom=0;right=0;collapsible=0;dropTarget=0;fillColor=none;points=[[0,0.5],[1,0.5]];portConstraint=eastwest;strokeColor=inherit;fontSize=16;" parent="yq9nLCr21f6rnNmGo06T-80" vertex="1">
          <mxGeometry y="30" width="200" height="30" as="geometry" />
        </mxCell>
        <mxCell id="yq9nLCr21f6rnNmGo06T-82" value="&lt;b&gt;PK&lt;/b&gt;" style="shape=partialRectangle;html=1;whiteSpace=wrap;connectable=0;fillColor=none;top=0;left=0;bottom=0;right=0;overflow=hidden;pointerEvents=1;strokeColor=inherit;fontSize=16;" parent="yq9nLCr21f6rnNmGo06T-81" vertex="1">
          <mxGeometry width="44" height="30" as="geometry">
            <mxRectangle width="44" height="30" as="alternateBounds" />
          </mxGeometry>
        </mxCell>
        <mxCell id="yq9nLCr21f6rnNmGo06T-83" value="codigo" style="shape=partialRectangle;html=1;whiteSpace=wrap;connectable=0;fillColor=none;top=0;left=0;bottom=0;right=0;align=left;spacingLeft=6;overflow=hidden;strokeColor=inherit;fontSize=16;" parent="yq9nLCr21f6rnNmGo06T-81" vertex="1">
          <mxGeometry x="44" width="156" height="30" as="geometry">
            <mxRectangle width="156" height="30" as="alternateBounds" />
          </mxGeometry>
        </mxCell>
        <mxCell id="K1ajA-WiC2W4zhZQd_Vk-1" style="shape=tableRow;horizontal=0;startSize=0;swimlaneHead=0;swimlaneBody=0;top=0;left=0;bottom=0;right=0;collapsible=0;dropTarget=0;fillColor=none;points=[[0,0.5],[1,0.5]];portConstraint=eastwest;strokeColor=inherit;fontSize=16;" vertex="1" parent="yq9nLCr21f6rnNmGo06T-80">
          <mxGeometry y="60" width="200" height="30" as="geometry" />
        </mxCell>
        <mxCell id="K1ajA-WiC2W4zhZQd_Vk-2" style="shape=partialRectangle;html=1;whiteSpace=wrap;connectable=0;fillColor=none;top=0;left=0;bottom=0;right=0;overflow=hidden;pointerEvents=1;strokeColor=inherit;fontSize=16;" vertex="1" parent="K1ajA-WiC2W4zhZQd_Vk-1">
          <mxGeometry width="44" height="30" as="geometry">
            <mxRectangle width="44" height="30" as="alternateBounds" />
          </mxGeometry>
        </mxCell>
        <mxCell id="K1ajA-WiC2W4zhZQd_Vk-3" value="identificacion" style="shape=partialRectangle;html=1;whiteSpace=wrap;connectable=0;fillColor=none;top=0;left=0;bottom=0;right=0;align=left;spacingLeft=6;overflow=hidden;strokeColor=inherit;fontSize=16;" vertex="1" parent="K1ajA-WiC2W4zhZQd_Vk-1">
          <mxGeometry x="44" width="156" height="30" as="geometry">
            <mxRectangle width="156" height="30" as="alternateBounds" />
          </mxGeometry>
        </mxCell>
        <mxCell id="yq9nLCr21f6rnNmGo06T-84" value="" style="shape=tableRow;horizontal=0;startSize=0;swimlaneHead=0;swimlaneBody=0;top=0;left=0;bottom=0;right=0;collapsible=0;dropTarget=0;fillColor=none;points=[[0,0.5],[1,0.5]];portConstraint=eastwest;strokeColor=inherit;fontSize=16;" parent="yq9nLCr21f6rnNmGo06T-80" vertex="1">
          <mxGeometry y="90" width="200" height="36" as="geometry" />
        </mxCell>
        <mxCell id="yq9nLCr21f6rnNmGo06T-85" value="" style="shape=partialRectangle;html=1;whiteSpace=wrap;connectable=0;fillColor=none;top=0;left=0;bottom=0;right=0;overflow=hidden;strokeColor=inherit;fontSize=16;" parent="yq9nLCr21f6rnNmGo06T-84" vertex="1">
          <mxGeometry width="44" height="36" as="geometry">
            <mxRectangle width="44" height="36" as="alternateBounds" />
          </mxGeometry>
        </mxCell>
        <mxCell id="yq9nLCr21f6rnNmGo06T-86" value="velocidad_megas" style="shape=partialRectangle;html=1;whiteSpace=wrap;connectable=0;fillColor=none;top=0;left=0;bottom=0;right=0;align=left;spacingLeft=6;overflow=hidden;strokeColor=inherit;fontSize=16;" parent="yq9nLCr21f6rnNmGo06T-84" vertex="1">
          <mxGeometry x="44" width="156" height="36" as="geometry">
            <mxRectangle width="156" height="36" as="alternateBounds" />
          </mxGeometry>
        </mxCell>
        <mxCell id="yq9nLCr21f6rnNmGo06T-87" value="" style="shape=tableRow;horizontal=0;startSize=0;swimlaneHead=0;swimlaneBody=0;top=0;left=0;bottom=0;right=0;collapsible=0;dropTarget=0;fillColor=none;points=[[0,0.5],[1,0.5]];portConstraint=eastwest;strokeColor=inherit;fontSize=16;" parent="yq9nLCr21f6rnNmGo06T-80" vertex="1">
          <mxGeometry y="126" width="200" height="29" as="geometry" />
        </mxCell>
        <mxCell id="yq9nLCr21f6rnNmGo06T-88" value="" style="shape=partialRectangle;html=1;whiteSpace=wrap;connectable=0;fillColor=none;top=0;left=0;bottom=0;right=0;overflow=hidden;strokeColor=inherit;fontSize=16;" parent="yq9nLCr21f6rnNmGo06T-87" vertex="1">
          <mxGeometry width="44" height="29" as="geometry">
            <mxRectangle width="44" height="29" as="alternateBounds" />
          </mxGeometry>
        </mxCell>
        <mxCell id="yq9nLCr21f6rnNmGo06T-89" value="precio" style="shape=partialRectangle;html=1;whiteSpace=wrap;connectable=0;fillColor=none;top=0;left=0;bottom=0;right=0;align=left;spacingLeft=6;overflow=hidden;strokeColor=inherit;fontSize=16;" parent="yq9nLCr21f6rnNmGo06T-87" vertex="1">
          <mxGeometry x="44" width="156" height="29" as="geometry">
            <mxRectangle width="156" height="29" as="alternateBounds" />
          </mxGeometry>
        </mxCell>
        <mxCell id="QVtMbLoc-h5NBsnrJeJw-6" value="planes_clientes" style="shape=table;startSize=30;container=1;collapsible=0;childLayout=tableLayout;fixedRows=1;rowLines=0;fontStyle=1;strokeColor=default;fontSize=16;" parent="1" vertex="1">
          <mxGeometry x="40" y="40" width="200" height="245" as="geometry" />
        </mxCell>
        <mxCell id="QVtMbLoc-h5NBsnrJeJw-7" value="" style="shape=tableRow;horizontal=0;startSize=0;swimlaneHead=0;swimlaneBody=0;top=0;left=0;bottom=0;right=0;collapsible=0;dropTarget=0;fillColor=none;points=[[0,0.5],[1,0.5]];portConstraint=eastwest;strokeColor=inherit;fontSize=16;" parent="QVtMbLoc-h5NBsnrJeJw-6" vertex="1">
          <mxGeometry y="30" width="200" height="30" as="geometry" />
        </mxCell>
        <mxCell id="QVtMbLoc-h5NBsnrJeJw-8" value="&lt;b&gt;PK&lt;/b&gt;" style="shape=partialRectangle;html=1;whiteSpace=wrap;connectable=0;fillColor=none;top=0;left=0;bottom=0;right=0;overflow=hidden;pointerEvents=1;strokeColor=inherit;fontSize=16;" parent="QVtMbLoc-h5NBsnrJeJw-7" vertex="1">
          <mxGeometry width="44" height="30" as="geometry">
            <mxRectangle width="44" height="30" as="alternateBounds" />
          </mxGeometry>
        </mxCell>
        <mxCell id="QVtMbLoc-h5NBsnrJeJw-9" value="id" style="shape=partialRectangle;html=1;whiteSpace=wrap;connectable=0;fillColor=none;top=0;left=0;bottom=0;right=0;align=left;spacingLeft=6;overflow=hidden;strokeColor=inherit;fontSize=16;" parent="QVtMbLoc-h5NBsnrJeJw-7" vertex="1">
          <mxGeometry x="44" width="156" height="30" as="geometry">
            <mxRectangle width="156" height="30" as="alternateBounds" />
          </mxGeometry>
        </mxCell>
        <mxCell id="QVtMbLoc-h5NBsnrJeJw-24" style="shape=tableRow;horizontal=0;startSize=0;swimlaneHead=0;swimlaneBody=0;top=0;left=0;bottom=0;right=0;collapsible=0;dropTarget=0;fillColor=none;points=[[0,0.5],[1,0.5]];portConstraint=eastwest;strokeColor=inherit;fontSize=16;" parent="QVtMbLoc-h5NBsnrJeJw-6" vertex="1">
          <mxGeometry y="60" width="200" height="30" as="geometry" />
        </mxCell>
        <mxCell id="QVtMbLoc-h5NBsnrJeJw-25" style="shape=partialRectangle;html=1;whiteSpace=wrap;connectable=0;fillColor=none;top=0;left=0;bottom=0;right=0;overflow=hidden;pointerEvents=1;strokeColor=inherit;fontSize=16;" parent="QVtMbLoc-h5NBsnrJeJw-24" vertex="1">
          <mxGeometry width="44" height="30" as="geometry">
            <mxRectangle width="44" height="30" as="alternateBounds" />
          </mxGeometry>
        </mxCell>
        <mxCell id="QVtMbLoc-h5NBsnrJeJw-26" value="descuento" style="shape=partialRectangle;html=1;whiteSpace=wrap;connectable=0;fillColor=none;top=0;left=0;bottom=0;right=0;align=left;spacingLeft=6;overflow=hidden;strokeColor=inherit;fontSize=16;" parent="QVtMbLoc-h5NBsnrJeJw-24" vertex="1">
          <mxGeometry x="44" width="156" height="30" as="geometry">
            <mxRectangle width="156" height="30" as="alternateBounds" />
          </mxGeometry>
        </mxCell>
        <mxCell id="QVtMbLoc-h5NBsnrJeJw-21" style="shape=tableRow;horizontal=0;startSize=0;swimlaneHead=0;swimlaneBody=0;top=0;left=0;bottom=0;right=0;collapsible=0;dropTarget=0;fillColor=none;points=[[0,0.5],[1,0.5]];portConstraint=eastwest;strokeColor=inherit;fontSize=16;" parent="QVtMbLoc-h5NBsnrJeJw-6" vertex="1">
          <mxGeometry y="90" width="200" height="30" as="geometry" />
        </mxCell>
        <mxCell id="QVtMbLoc-h5NBsnrJeJw-22" style="shape=partialRectangle;html=1;whiteSpace=wrap;connectable=0;fillColor=none;top=0;left=0;bottom=0;right=0;overflow=hidden;pointerEvents=1;strokeColor=inherit;fontSize=16;" parent="QVtMbLoc-h5NBsnrJeJw-21" vertex="1">
          <mxGeometry width="44" height="30" as="geometry">
            <mxRectangle width="44" height="30" as="alternateBounds" />
          </mxGeometry>
        </mxCell>
        <mxCell id="QVtMbLoc-h5NBsnrJeJw-23" value="total" style="shape=partialRectangle;html=1;whiteSpace=wrap;connectable=0;fillColor=none;top=0;left=0;bottom=0;right=0;align=left;spacingLeft=6;overflow=hidden;strokeColor=inherit;fontSize=16;" parent="QVtMbLoc-h5NBsnrJeJw-21" vertex="1">
          <mxGeometry x="44" width="156" height="30" as="geometry">
            <mxRectangle width="156" height="30" as="alternateBounds" />
          </mxGeometry>
        </mxCell>
        <mxCell id="QVtMbLoc-h5NBsnrJeJw-30" style="shape=tableRow;horizontal=0;startSize=0;swimlaneHead=0;swimlaneBody=0;top=0;left=0;bottom=0;right=0;collapsible=0;dropTarget=0;fillColor=none;points=[[0,0.5],[1,0.5]];portConstraint=eastwest;strokeColor=inherit;fontSize=16;" parent="QVtMbLoc-h5NBsnrJeJw-6" vertex="1">
          <mxGeometry y="120" width="200" height="30" as="geometry" />
        </mxCell>
        <mxCell id="QVtMbLoc-h5NBsnrJeJw-31" style="shape=partialRectangle;html=1;whiteSpace=wrap;connectable=0;fillColor=none;top=0;left=0;bottom=0;right=0;overflow=hidden;pointerEvents=1;strokeColor=inherit;fontSize=16;" parent="QVtMbLoc-h5NBsnrJeJw-30" vertex="1">
          <mxGeometry width="44" height="30" as="geometry">
            <mxRectangle width="44" height="30" as="alternateBounds" />
          </mxGeometry>
        </mxCell>
        <mxCell id="QVtMbLoc-h5NBsnrJeJw-32" value="fecha_inicio" style="shape=partialRectangle;html=1;whiteSpace=wrap;connectable=0;fillColor=none;top=0;left=0;bottom=0;right=0;align=left;spacingLeft=6;overflow=hidden;strokeColor=inherit;fontSize=16;" parent="QVtMbLoc-h5NBsnrJeJw-30" vertex="1">
          <mxGeometry x="44" width="156" height="30" as="geometry">
            <mxRectangle width="156" height="30" as="alternateBounds" />
          </mxGeometry>
        </mxCell>
        <mxCell id="QVtMbLoc-h5NBsnrJeJw-27" style="shape=tableRow;horizontal=0;startSize=0;swimlaneHead=0;swimlaneBody=0;top=0;left=0;bottom=0;right=0;collapsible=0;dropTarget=0;fillColor=none;points=[[0,0.5],[1,0.5]];portConstraint=eastwest;strokeColor=inherit;fontSize=16;" parent="QVtMbLoc-h5NBsnrJeJw-6" vertex="1">
          <mxGeometry y="150" width="200" height="30" as="geometry" />
        </mxCell>
        <mxCell id="QVtMbLoc-h5NBsnrJeJw-28" style="shape=partialRectangle;html=1;whiteSpace=wrap;connectable=0;fillColor=none;top=0;left=0;bottom=0;right=0;overflow=hidden;pointerEvents=1;strokeColor=inherit;fontSize=16;" parent="QVtMbLoc-h5NBsnrJeJw-27" vertex="1">
          <mxGeometry width="44" height="30" as="geometry">
            <mxRectangle width="44" height="30" as="alternateBounds" />
          </mxGeometry>
        </mxCell>
        <mxCell id="QVtMbLoc-h5NBsnrJeJw-29" value="fecha_fin" style="shape=partialRectangle;html=1;whiteSpace=wrap;connectable=0;fillColor=none;top=0;left=0;bottom=0;right=0;align=left;spacingLeft=6;overflow=hidden;strokeColor=inherit;fontSize=16;" parent="QVtMbLoc-h5NBsnrJeJw-27" vertex="1">
          <mxGeometry x="44" width="156" height="30" as="geometry">
            <mxRectangle width="156" height="30" as="alternateBounds" />
          </mxGeometry>
        </mxCell>
        <mxCell id="QVtMbLoc-h5NBsnrJeJw-10" value="" style="shape=tableRow;horizontal=0;startSize=0;swimlaneHead=0;swimlaneBody=0;top=0;left=0;bottom=0;right=0;collapsible=0;dropTarget=0;fillColor=none;points=[[0,0.5],[1,0.5]];portConstraint=eastwest;strokeColor=inherit;fontSize=16;" parent="QVtMbLoc-h5NBsnrJeJw-6" vertex="1">
          <mxGeometry y="180" width="200" height="36" as="geometry" />
        </mxCell>
        <mxCell id="QVtMbLoc-h5NBsnrJeJw-11" value="&lt;b&gt;FK&lt;/b&gt;" style="shape=partialRectangle;html=1;whiteSpace=wrap;connectable=0;fillColor=none;top=0;left=0;bottom=0;right=0;overflow=hidden;strokeColor=inherit;fontSize=16;" parent="QVtMbLoc-h5NBsnrJeJw-10" vertex="1">
          <mxGeometry width="44" height="36" as="geometry">
            <mxRectangle width="44" height="36" as="alternateBounds" />
          </mxGeometry>
        </mxCell>
        <mxCell id="QVtMbLoc-h5NBsnrJeJw-12" value="cod_plan" style="shape=partialRectangle;html=1;whiteSpace=wrap;connectable=0;fillColor=none;top=0;left=0;bottom=0;right=0;align=left;spacingLeft=6;overflow=hidden;strokeColor=inherit;fontSize=16;" parent="QVtMbLoc-h5NBsnrJeJw-10" vertex="1">
          <mxGeometry x="44" width="156" height="36" as="geometry">
            <mxRectangle width="156" height="36" as="alternateBounds" />
          </mxGeometry>
        </mxCell>
        <mxCell id="QVtMbLoc-h5NBsnrJeJw-13" value="" style="shape=tableRow;horizontal=0;startSize=0;swimlaneHead=0;swimlaneBody=0;top=0;left=0;bottom=0;right=0;collapsible=0;dropTarget=0;fillColor=none;points=[[0,0.5],[1,0.5]];portConstraint=eastwest;strokeColor=inherit;fontSize=16;" parent="QVtMbLoc-h5NBsnrJeJw-6" vertex="1">
          <mxGeometry y="216" width="200" height="29" as="geometry" />
        </mxCell>
        <mxCell id="QVtMbLoc-h5NBsnrJeJw-14" value="&lt;b&gt;FK&lt;/b&gt;" style="shape=partialRectangle;html=1;whiteSpace=wrap;connectable=0;fillColor=none;top=0;left=0;bottom=0;right=0;overflow=hidden;strokeColor=inherit;fontSize=16;" parent="QVtMbLoc-h5NBsnrJeJw-13" vertex="1">
          <mxGeometry width="44" height="29" as="geometry">
            <mxRectangle width="44" height="29" as="alternateBounds" />
          </mxGeometry>
        </mxCell>
        <mxCell id="QVtMbLoc-h5NBsnrJeJw-15" value="id_cliente" style="shape=partialRectangle;html=1;whiteSpace=wrap;connectable=0;fillColor=none;top=0;left=0;bottom=0;right=0;align=left;spacingLeft=6;overflow=hidden;strokeColor=inherit;fontSize=16;" parent="QVtMbLoc-h5NBsnrJeJw-13" vertex="1">
          <mxGeometry x="44" width="156" height="29" as="geometry">
            <mxRectangle width="156" height="29" as="alternateBounds" />
          </mxGeometry>
        </mxCell>
        <mxCell id="QVtMbLoc-h5NBsnrJeJw-19" style="edgeStyle=orthogonalEdgeStyle;rounded=0;orthogonalLoop=1;jettySize=auto;html=1;exitX=1;exitY=0.5;exitDx=0;exitDy=0;entryX=0;entryY=0.5;entryDx=0;entryDy=0;strokeColor=default;strokeWidth=2;align=center;verticalAlign=middle;fontFamily=Helvetica;fontSize=11;fontColor=default;labelBackgroundColor=default;startArrow=ERoneToMany;startFill=0;startSize=8;endArrow=ERone;endFill=0;endSize=8;sourcePerimeterSpacing=13;targetPerimeterSpacing=13;" parent="1" source="QVtMbLoc-h5NBsnrJeJw-10" target="yq9nLCr21f6rnNmGo06T-81" edge="1">
          <mxGeometry relative="1" as="geometry" />
        </mxCell>
        <mxCell id="QVtMbLoc-h5NBsnrJeJw-20" style="edgeStyle=orthogonalEdgeStyle;rounded=0;orthogonalLoop=1;jettySize=auto;html=1;exitX=1;exitY=0.5;exitDx=0;exitDy=0;strokeColor=default;strokeWidth=2;align=center;verticalAlign=middle;fontFamily=Helvetica;fontSize=11;fontColor=default;labelBackgroundColor=default;startArrow=ERoneToMany;startFill=0;startSize=8;endArrow=ERone;endFill=0;endSize=8;sourcePerimeterSpacing=13;targetPerimeterSpacing=13;entryX=0;entryY=0.5;entryDx=0;entryDy=0;" parent="1" source="QVtMbLoc-h5NBsnrJeJw-13" target="QVtMbLoc-h5NBsnrJeJw-3" edge="1">
          <mxGeometry relative="1" as="geometry">
            <mxPoint x="380" y="270" as="targetPoint" />
          </mxGeometry>
        </mxCell>
      </root>
    </mxGraphModel>
  </diagram>
</mxfile>
